<?xml version="1.0" encoding="utf-8"?>
<!-- Generator: Adobe Illustrator 16.0.0, SVG Export Plug-In . SVG Version: 6.00 Build 0)  -->
<!DOCTYPE svg PUBLIC "-//W3C//DTD SVG 1.1//EN" "http://www.w3.org/Graphics/SVG/1.1/DTD/svg11.dtd">
<svg version="1.1" id="Layer_1" xmlns="http://www.w3.org/2000/svg" xmlns:xlink="http://www.w3.org/1999/xlink" x="0px" y="0px"
	 width="502.039px" height="175.362px" viewBox="0 0 502.039 175.362" enable-background="new 0 0 502.039 175.362"
	 xml:space="preserve">
<g>
	<path fill="#808285" d="M210.929,92.244c0,8.956-2.956,12.462-11.094,12.462h-19.67c-8.143,0-11.091-3.506-11.091-12.462V51.538
		h-19.855v45.383c0,17.525,8.319,25.901,26.564,25.901h28.438c18.239,0,26.558-8.376,26.558-25.901V51.538h-19.85V92.244z"/>
	<path fill="#808285" d="M294.504,104.708h-21.195c-9.387,0-11.357-3.899-11.357-14.12v-7.589c0-8.772,1.971-14.13,12.428-14.13
		h21.645c5.902,0,9.3,1.463,9.3,6.524v1.953h19.855c0.178-19.966-3.489-26.585-31.749-26.585h-23.342
		c-17.881,0-28.524,4.87-28.524,25.513v21.035c0,20.642,10.643,25.513,28.524,25.513h32.016c19.939,0,23.881-9.349,23.881-21.229
		V94.97H306.13C306.13,103.732,303.446,104.708,294.504,104.708"/>
	<path fill="#808285" d="M396.326,50.759h-31.834c-17.892,0-28.531,4.87-28.531,25.515v21.034c0,20.64,10.64,25.512,28.531,25.512
		h31.834c17.885,0,28.526-4.872,28.526-25.512V76.274C424.852,55.629,414.21,50.759,396.326,50.759 M404.465,90.587
		c0,10.222-1.97,14.119-11.36,14.119h-25.399c-9.391,0-11.355-3.897-11.355-14.119v-7.589c0-8.772,1.965-14.129,12.43-14.129h23.253
		c10.463,0,12.433,5.357,12.433,14.129V90.587z"/>
	<path fill="#808285" d="M485.309,51.469c-16.636,0-25.674,1.028-29.292,12.163l-0.013-5.405v-5.483h-20.366v70.076h22.341V84.073
		c0-8.383,8.584-12.957,20.608-12.823c13.155,0.148,22.057,0.405,23.451,0.763V52.854C500.232,52.106,491.752,51.469,485.309,51.469
		"/>
	<path fill="#808285" d="M127.797,18.779h-19.796l-0.027-0.032l-0.028,0.032h-0.183v0.172l-8.411,8.099
		C78.487,6.857,56.708-3.939,43.587,1.325c-17.008,6.828-13.614,38.277,6.731,72.922L0,122.674h29.842L55.476,97.88h11.146
		c24.891,31.104,55.209,50.001,71.759,43.357c18.029-7.234,13.129-42.146-10.584-79.19V18.779z M107.763,47.302v29.876H76.876
		L107.763,47.302z M55.513,69.241C38.336,39.503,33.51,13.262,47.537,7.633c10.895-4.373,30.35,4.819,49.09,22.035L55.513,69.241z
		 M135.327,133.474c-13.479,5.411-38.294-9.937-59.847-35.594h32.283v24.778h20.034V68.436
		C146.22,99.565,149.897,127.631,135.327,133.474"/>
	<path fill="#ED1C24" d="M242.103,147.484h-8.744c-1.883,0-3.049,1.604-3.049,3.087v21.313c0,1.931,1.55,3.087,3.049,3.087
		c1.705,0,2.896-1.271,2.896-3.087v-4.523h5.848c4.882,0,9.825-3.361,9.825-9.785C251.927,150.643,246.834,147.484,242.103,147.484
		 M246.171,157.576c0,2.188-1.902,4.104-4.069,4.104h-5.848v-8.476h5.848C244.345,153.205,246.171,155.166,246.171,157.576"/>
	<path fill="#ED1C24" d="M275.915,164.569c4.023-1.939,5.194-6.122,4.533-9.541c-0.64-3.322-3.344-7.202-8.854-7.202h-10.07
		c-1.54,0-2.746,1.222-2.746,2.783v21.503c0,1.918,1.479,2.921,2.938,2.921c1.514,0,3.046-1.03,3.046-2.997v-6.378h5.223
		l5.591,7.995c0.769,0.974,1.73,1.382,2.637,1.382c0.655,0,1.28-0.213,1.781-0.579c1.104-0.806,1.758-2.463,0.561-4.235
		L275.915,164.569z M274.924,156.768c0,1.783-1.146,3.589-3.331,3.589h-6.832v-7h6.832c1.049,0,1.917,0.361,2.509,1.045
		C274.632,155.013,274.924,155.854,274.924,156.768"/>
	<path fill="#ED1C24" d="M301.955,146.88c-7.328,0-14.747,4.936-14.747,14.367c0,4.137,1.417,7.679,4.097,10.244
		c2.59,2.48,6.202,3.871,9.996,3.871c0.222,0,0.443-0.005,0.665-0.013c6.966-0.005,14.015-4.85,14.015-14.103
		C315.98,151.87,308.722,147.227,301.955,146.88 M310.072,161.247c0,5.578-4.294,8.497-8.535,8.497
		c-4.166,0-8.383-2.919-8.383-8.497s4.217-8.497,8.383-8.497C305.778,152.75,310.072,155.669,310.072,161.247"/>
	<path fill="#ED1C24" d="M335.267,147.484h-8.743c-1.883,0-3.049,1.604-3.049,3.087v21.313c0,1.931,1.551,3.087,3.049,3.087
		c1.706,0,2.897-1.271,2.897-3.087v-4.523h5.846c4.883,0,9.826-3.361,9.826-9.785C345.093,150.643,340,147.484,335.267,147.484
		 M339.336,157.576c0,2.188-1.901,4.104-4.069,4.104h-5.846v-8.476h5.846C337.511,153.205,339.336,155.166,339.336,157.576"/>
	<path fill="#ED1C24" d="M368.96,169.063h-11.071v-4.729h9.064c1.971,0,3.001-1.486,3.001-2.954s-1.03-2.955-3.001-2.955h-9.064
		v-4.728h10.426c2.009,0,3.06-1.488,3.06-2.955c0-0.764-0.274-1.476-0.771-2.004c-0.56-0.597-1.351-0.911-2.288-0.911h-13.588
		c-1.608,0-2.821,1.213-2.821,2.82v21.5c0,1.583,1.239,2.823,2.821,2.823h14.233c0.973,0,1.789-0.308,2.362-0.891
		c0.514-0.522,0.796-1.23,0.796-1.995C372.119,170.621,371.011,169.063,368.96,169.063"/>
	<path fill="#ED1C24" d="M396.148,164.569c4.024-1.939,5.194-6.121,4.534-9.539c-0.641-3.324-3.346-7.204-8.856-7.204h-10.07
		c-1.539,0-2.745,1.222-2.745,2.783v21.503c0,1.918,1.479,2.921,2.938,2.921c1.514,0,3.046-1.03,3.046-2.997v-6.378h5.222
		l5.592,7.995c0.769,0.974,1.73,1.382,2.637,1.382c0.655,0,1.28-0.213,1.781-0.579c1.104-0.807,1.758-2.463,0.56-4.235
		L396.148,164.569z M395.157,156.768c0,1.783-1.145,3.589-3.331,3.589h-6.831v-7h6.831c1.049,0,1.917,0.361,2.509,1.045
		C394.865,155.013,395.157,155.854,395.157,156.768"/>
	<path fill="#ED1C24" d="M427.259,147.712h-17.905c-1.934,0-2.944,1.458-2.944,2.897c0,1.438,1.011,2.896,2.944,2.896h6.15v18.644
		c0,1.952,1.484,2.973,2.952,2.973c1.487,0,2.994-1.021,2.994-2.973v-18.644h5.809c1.971,0,3.001-1.458,3.001-2.896
		C430.26,149.17,429.23,147.712,427.259,147.712"/>
	<path fill="#ED1C24" d="M458.187,149.618c-0.411-0.978-1.408-1.693-2.539-1.824c-1.12-0.123-2.173,0.354-2.887,1.339l-6.306,9.298
		l-6.232-9.294c-0.669-1.003-1.647-1.511-2.703-1.415c-1.114,0.091-2.169,0.837-2.626,1.854c-0.396,0.88-0.283,1.839,0.307,2.633
		l8.166,12.249v7.654c0,1.955,1.511,2.979,3.005,2.979c1.461,0,2.941-1.011,2.941-2.941v-7.688l8.456-12.235
		C458.402,151.409,458.55,150.483,458.187,149.618"/>
</g>
</svg>
